<?xml version="1.0" encoding="utf-8"?>
<svg xmlns="http://www.w3.org/2000/svg"
	xmlns:xlink="http://www.w3.org/1999/xlink"
	width="32px" height="40px">
<path fill="rgb(0,0,0)" fill-rule="evenodd" d="M 28.41 16.55C 27.58 16.55 26.88 16.83 26.33 17.24 26.33 17.24 26.33 17.24 26.33 17.24 26.33 15.31 24.81 13.79 22.87 13.79 22.04 13.79 21.21 14.07 20.51 14.62 19.96 13.24 18.71 12.41 17.33 12.41 16.5 12.41 15.81 12.69 15.25 13.1 15.25 13.1 15.25 6.9 15.25 6.9 15.25 6.9 24.94 6.9 24.94 6.9 24.94 6.9 20.51 11.31 20.51 11.31 20.51 11.31 21.62 12.41 21.62 12.41 21.62 12.41 27.85 6.21 27.85 6.21 27.85 6.21 21.62 0 21.62 0 21.62 0 20.51 1.1 20.51 1.1 20.51 1.1 25.08 5.52 25.08 5.52 25.08 5.52 15.25 5.52 15.25 5.52 14.98 4 13.59 2.76 11.93 2.76 9.99 2.76 8.47 4.28 8.47 6.21 8.47 6.21 8.47 18.48 8.47 18.48 5.7 16 2.65 14.07 0.71 16-2.06 18.76 3.76 24.14 8.19 32.28 11.38 37.93 15.81 40 20.24 40 26.74 40 32.01 34.76 32.01 28.28 32.01 28.28 32.01 20 32.01 20 31.87 18.07 30.34 16.55 28.41 16.55ZM 30.48 23.03C 30.48 23.03 30.48 28.28 30.48 28.28 30.48 33.66 25.78 38.62 20.1 38.62 14.84 38.62 11.79 35.72 9.3 31.72 4.04 22.62 0.16 18.48 1.54 16.97 3.07 15.45 6.81 18.76 9.71 21.79 9.71 21.79 9.71 6.21 9.71 6.21 9.71 5.1 10.68 4.14 11.79 4.14 12.9 4.14 13.87 5.1 13.87 6.21 13.87 6.21 13.87 20.69 13.87 20.69 13.87 20.69 15.25 20.69 15.25 20.69 15.25 20.69 15.25 15.86 15.25 15.86 15.25 14.76 16.22 13.79 17.33 13.79 18.44 13.79 19.41 14.76 19.41 15.86 19.41 15.86 19.41 19.31 19.41 19.31 19.41 19.31 20.79 19.31 20.79 19.31 20.79 19.31 20.79 17.24 20.79 17.24 20.79 16.14 21.76 15.17 22.87 15.17 23.98 15.17 24.94 16.14 24.94 17.24 24.94 17.24 24.94 20.69 24.94 20.69 24.94 20.69 26.33 20.69 26.33 20.69 26.33 20.69 26.33 20 26.33 20 26.33 18.9 27.3 17.93 28.41 17.93 29.51 17.93 30.48 18.9 30.48 20 30.48 20 30.48 23.03 30.48 23.03Z"/>
</svg>