<?xml version="1.0" encoding="utf-8"?>
<svg xmlns="http://www.w3.org/2000/svg"
	xmlns:xlink="http://www.w3.org/1999/xlink"
	width="36px" height="40px">
<path fill="rgb(0,0,0)" fill-rule="evenodd" d="M 32.54 16.55C 31.71 16.55 31.02 16.83 30.46 17.24 30.46 17.24 30.46 17.24 30.46 17.24 30.46 15.31 28.94 13.79 27 13.79 26.17 13.79 25.34 14.07 24.65 14.62 24.09 13.24 22.85 12.41 21.46 12.41 20.63 12.41 19.94 12.69 19.38 13.1 19.38 13.1 19.38 6.21 19.38 6.21 19.38 4.28 17.86 2.76 15.92 2.76 14.26 2.76 12.88 4 12.6 5.52 12.6 5.52 2.77 5.52 2.77 5.52 2.77 5.52 7.2 1.1 7.2 1.1 7.2 1.1 6.23 0 6.23 0 6.23 0-0 6.21-0 6.21-0 6.21 6.23 12.41 6.23 12.41 6.23 12.41 7.34 11.31 7.34 11.31 7.34 11.31 2.77 6.9 2.77 6.9 2.77 6.9 12.46 6.9 12.46 6.9 12.46 6.9 12.46 18.48 12.46 18.48 9.69 16 6.65 14.07 4.71 16 1.94 18.76 7.75 24.14 12.18 32.28 15.37 37.93 19.8 40 24.23 40 30.74 40 36 34.76 36 28.28 36 28.28 36 20 36 20 36 18.07 34.48 16.55 32.54 16.55ZM 34.62 23.03C 34.62 23.03 34.62 28.28 34.62 28.28 34.62 33.66 29.91 38.62 24.23 38.62 18.97 38.62 15.92 35.72 13.43 31.72 8.03 22.62 4.15 18.48 5.68 16.97 7.2 15.45 10.94 18.76 13.85 21.79 13.85 21.79 13.85 6.21 13.85 6.21 13.85 5.1 14.82 4.14 15.92 4.14 17.03 4.14 18 5.1 18 6.21 18 6.21 18 20.69 18 20.69 18 20.69 19.38 20.69 19.38 20.69 19.38 20.69 19.38 15.86 19.38 15.86 19.38 14.76 20.35 13.79 21.46 13.79 22.57 13.79 23.54 14.76 23.54 15.86 23.54 15.86 23.54 19.31 23.54 19.31 23.54 19.31 24.92 19.31 24.92 19.31 24.92 19.31 24.92 17.24 24.92 17.24 24.92 16.14 25.89 15.17 27 15.17 28.11 15.17 29.08 16.14 29.08 17.24 29.08 17.24 29.08 20.69 29.08 20.69 29.08 20.69 30.46 20.69 30.46 20.69 30.46 20.69 30.46 20 30.46 20 30.46 18.9 31.43 17.93 32.54 17.93 33.65 17.93 34.62 18.9 34.62 20 34.62 20 34.62 23.03 34.62 23.03Z"/>
</svg>