<?xml version="1.0" encoding="utf-8"?>
<svg xmlns="http://www.w3.org/2000/svg"
	xmlns:xlink="http://www.w3.org/1999/xlink"
	width="10px" height="9px">
<path fill="rgb(100,100,100)" fill-rule="evenodd" d="M9.93 1.24 C9.93 1.24 8.60 0.05 8.60 0.05 C8.56 0.02 8.51 -0.00 8.45 0.00 C8.40 0.00 8.35 0.03 8.31 0.07 C8.31 0.07 3.49 5.63 3.49 5.63 C3.49 5.63 1.78 3.33 1.78 3.33 C1.74 3.29 1.70 3.26 1.64 3.25 C1.59 3.24 1.53 3.26 1.49 3.29 C1.49 3.29 0.08 4.37 0.08 4.37 C-0.01 4.44 -0.03 4.57 0.04 4.66 C0.04 4.66 3.21 8.92 3.21 8.92 C3.25 8.97 3.31 9.00 3.37 9.00 C3.37 9.00 3.37 9.00 3.38 9.00 C3.43 9.00 3.49 8.97 3.53 8.93 C3.53 8.93 9.95 1.53 9.95 1.53 C10.02 1.44 10.01 1.31 9.93 1.24 Z"/>
</svg>