<svg xmlns="http://www.w3.org/2000/svg" xmlns:xlink="http://www.w3.org/1999/xlink" preserveAspectRatio="xMidYMid" width="24" height="24" viewBox="0 0 24 24">
  <defs>
    <style>

      .cls-3 {
        fill: #1b5791;
      }

      .cls-4 {
        fill: #ffffff;
      }
    </style>
  </defs>
  <g id="digg">
    <rect id="rect-1" class="cls-3" width="24" height="24"/>
    <path d="M15.993,17.005 C15.993,17.005 15.993,15.553 15.993,15.553 C15.993,15.553 18.372,15.553 18.372,15.553 C18.372,15.553 18.372,14.944 18.372,14.944 C18.372,14.944 15.993,14.944 15.993,14.944 C15.993,14.944 15.993,10.096 15.993,10.096 C15.993,10.096 20.001,10.096 20.001,10.096 C20.001,10.096 20.001,17.005 20.001,17.005 C20.001,17.005 15.993,17.005 15.993,17.005 ZM18.326,11.622 C18.326,11.622 17.515,11.622 17.515,11.622 C17.515,11.622 17.515,13.600 17.515,13.600 C17.515,13.600 18.326,13.600 18.326,13.600 C18.326,13.600 18.326,11.622 18.326,11.622 ZM11.205,15.553 C11.205,15.553 13.584,15.553 13.584,15.553 C13.584,15.553 13.584,14.944 13.584,14.944 C13.584,14.944 11.205,14.944 11.205,14.944 C11.205,14.944 11.205,10.096 11.205,10.096 C11.205,10.096 15.214,10.096 15.214,10.096 C15.214,10.096 15.214,17.005 15.214,17.005 C15.214,17.005 11.205,17.005 11.205,17.005 C11.205,17.005 11.205,15.553 11.205,15.553 ZM13.538,11.622 C13.538,11.622 12.727,11.622 12.727,11.622 C12.727,11.622 12.727,13.600 12.727,13.600 C12.727,13.600 13.538,13.600 13.538,13.600 C13.538,13.600 13.538,11.622 13.538,11.622 ZM8.806,10.090 C8.806,10.090 10.435,10.090 10.435,10.090 C10.435,10.090 10.435,14.922 10.435,14.922 C10.435,14.922 8.806,14.922 8.806,14.922 C8.806,14.922 8.806,10.090 8.806,10.090 ZM8.806,8.016 C8.806,8.016 10.435,8.016 10.435,8.016 C10.435,8.016 10.435,9.367 10.435,9.367 C10.435,9.367 8.806,9.367 8.806,9.367 C8.806,9.367 8.806,8.016 8.806,8.016 ZM3.999,10.069 C3.999,10.069 6.442,10.069 6.442,10.069 C6.442,10.069 6.442,7.995 6.442,7.995 C6.442,7.995 8.069,7.995 8.069,7.995 C8.069,7.995 8.069,14.885 8.069,14.885 C8.069,14.885 3.999,14.885 3.999,14.885 C3.999,14.885 3.999,10.069 3.999,10.069 ZM5.575,13.395 C5.575,13.395 6.389,13.395 6.389,13.395 C6.389,13.395 6.389,11.418 6.389,11.418 C6.389,11.418 5.575,11.418 5.575,11.418 C5.575,11.418 5.575,13.395 5.575,13.395 Z" id="path-1" class="cls-4" fill-rule="evenodd"/>
  </g>
</svg>
