<svg xmlns="http://www.w3.org/2000/svg" xmlns:xlink="http://www.w3.org/1999/xlink" preserveAspectRatio="xMidYMid" width="24" height="24" viewBox="0 0 24 24">
  <defs>
    <style>

      .cls-3 {
        fill: #0b82de;
      }

      .cls-4 {
        fill: #ffffff;
      }
    </style>
  </defs>
  <g id="google-bookmarks">
    <rect id="rect-1" class="cls-3" width="24" height="24"/>
    <path d="M6.003,4.000 C6.003,4.000 6.003,19.985 6.003,19.985 C6.003,19.985 12.088,13.833 12.088,13.833 C12.088,13.833 17.997,20.000 17.997,20.000 C17.997,20.000 17.997,4.000 17.997,4.000 C17.997,4.000 6.003,4.000 6.003,4.000 Z" id="path-1" class="cls-4" fill-rule="evenodd"/>
    <path d="M9.050,9.054 C8.674,11.407 10.467,12.904 12.679,13.013 C13.557,13.057 14.828,13.030 15.592,12.521 C15.829,12.364 15.810,12.014 15.810,11.775 C15.810,11.308 15.935,10.956 15.998,10.514 C16.005,10.468 15.967,10.422 15.923,10.411 C15.252,10.233 13.835,10.138 13.359,10.731 C13.310,10.793 13.327,10.870 13.405,10.898 C13.624,10.975 13.792,10.967 14.029,10.969 C14.515,10.973 14.429,11.456 14.429,11.781 C14.429,12.621 13.003,12.361 12.519,12.213 C11.840,12.006 11.305,11.487 10.908,10.930 C10.193,9.927 10.188,8.516 10.869,7.505 C11.594,6.427 13.142,6.376 14.149,7.065 C14.229,7.120 14.346,7.227 14.383,7.315 C14.401,7.359 14.412,7.402 14.414,7.446 C14.420,7.542 14.380,7.640 14.393,7.665 C14.402,7.680 14.414,7.693 14.427,7.702 C14.774,7.950 15.658,7.276 15.615,6.915 C15.518,6.111 13.436,5.989 12.859,6.001 C11.001,6.041 9.347,7.194 9.050,9.054 Z" id="path-2" class="cls-3" fill-rule="evenodd"/>
  </g>
</svg>
