<svg xmlns="http://www.w3.org/2000/svg" xmlns:xlink="http://www.w3.org/1999/xlink" preserveAspectRatio="xMidYMid" width="24" height="24" viewBox="0 0 24 24">
  <defs>
    <style>

      .cls-3 {
        fill: #007ab5;
      }

      .cls-4 {
        fill: #ffffff;
      }
    </style>
  </defs>
  <g id="linkedin">
    <rect id="rect-1" class="cls-3" width="24" height="24"/>
    <path d="M16.579,19.999 C16.579,19.999 16.579,13.814 16.579,13.814 C16.579,12.376 16.084,11.396 14.846,11.396 C13.901,11.396 13.339,12.057 13.091,12.696 C13.001,12.924 12.978,13.244 12.978,13.563 C12.978,13.563 12.978,19.999 12.978,19.999 C12.978,19.999 9.558,19.999 9.558,19.999 C9.558,19.999 9.558,12.399 9.558,12.399 C9.558,11.007 9.513,9.844 9.468,8.839 C9.468,8.839 12.438,8.839 12.438,8.839 C12.438,8.839 12.596,10.391 12.596,10.391 C12.596,10.391 12.664,10.391 12.664,10.391 C13.114,9.660 14.216,8.588 16.062,8.588 C18.312,8.588 20.000,10.117 20.000,13.403 C20.000,13.403 20.000,19.999 20.000,19.999 C20.000,19.999 16.579,19.999 16.579,19.999 ZM5.777,7.470 C4.698,7.470 4.000,6.694 4.000,5.735 C4.000,4.754 4.720,4.001 5.823,4.001 C6.925,4.001 7.601,4.754 7.623,5.735 C7.623,6.694 6.925,7.470 5.777,7.470 ZM7.511,19.999 C7.511,19.999 4.090,19.999 4.090,19.999 C4.090,19.999 4.090,8.839 4.090,8.839 C4.090,8.839 7.511,8.839 7.511,8.839 C7.511,8.839 7.511,19.999 7.511,19.999 Z" id="path-1" class="cls-4" fill-rule="evenodd"/>
  </g>
</svg>
