<svg xmlns="http://www.w3.org/2000/svg" xmlns:xlink="http://www.w3.org/1999/xlink" preserveAspectRatio="xMidYMid" width="24" height="24" viewBox="0 0 24 24">
  <defs>
    <style>

      .cls-3 {
        fill: #e77817;
      }

      .cls-4 {
        fill: #ffffff;
      }
    </style>
  </defs>
  <g id="ok">
    <rect id="rect-1" class="cls-3" width="24" height="24"/>
    <path d="M16.739,13.690 C16.223,14.198 15.603,14.565 14.914,14.822 C14.262,15.065 13.549,15.187 12.842,15.268 C12.949,15.380 12.999,15.434 13.066,15.499 C14.025,16.424 14.988,17.346 15.944,18.275 C16.270,18.591 16.338,18.983 16.158,19.351 C15.962,19.753 15.523,20.018 15.093,19.990 C14.820,19.971 14.608,19.841 14.419,19.658 C13.695,18.959 12.957,18.272 12.248,17.559 C12.042,17.352 11.943,17.391 11.761,17.571 C11.033,18.291 10.293,19.000 9.548,19.705 C9.214,20.022 8.816,20.079 8.429,19.898 C8.017,19.706 7.754,19.302 7.775,18.896 C7.789,18.621 7.929,18.411 8.125,18.223 C9.075,17.313 10.021,16.400 10.968,15.488 C11.031,15.428 11.089,15.364 11.180,15.270 C9.889,15.140 8.725,14.835 7.728,14.086 C7.604,13.993 7.477,13.903 7.364,13.799 C6.928,13.397 6.884,12.936 7.229,12.461 C7.524,12.054 8.020,11.945 8.535,12.179 C8.635,12.224 8.730,12.281 8.821,12.341 C10.679,13.567 13.231,13.601 15.096,12.396 C15.280,12.260 15.478,12.149 15.707,12.093 C16.152,11.983 16.567,12.140 16.805,12.514 C17.078,12.941 17.075,13.358 16.739,13.690 ZM11.967,12.099 C9.663,12.091 7.775,10.257 7.788,8.041 C7.801,5.800 9.691,3.995 12.018,4.001 C14.349,4.007 16.219,5.839 16.208,8.102 C16.196,10.314 14.294,12.107 11.967,12.099 ZM12.001,6.069 C10.848,6.068 9.928,6.960 9.936,8.070 C9.945,9.166 10.865,10.036 12.012,10.032 C13.155,10.028 14.064,9.146 14.061,8.046 C14.057,6.946 13.144,6.070 12.001,6.069 Z" id="path-1" class="cls-4" fill-rule="evenodd"/>
  </g>
</svg>
