<svg xmlns="http://www.w3.org/2000/svg" xmlns:xlink="http://www.w3.org/1999/xlink" preserveAspectRatio="xMidYMid" width="24" height="24" viewBox="0 0 24 24">
  <defs>
    <style>

      .cls-3 {
        fill: #ffb74d;
      }

      .cls-4 {
        fill: #fafafa;
      }
    </style>
  </defs>
  <g id="rss">
    <rect id="rect-1" class="cls-3" width="24" height="24"/>
    <path d="M19.757,19.999 C19.757,19.999 19.744,19.999 19.744,19.999 C19.744,19.999 16.643,19.999 16.643,19.999 C16.508,19.999 16.397,19.888 16.397,19.753 C16.397,13.049 10.944,7.596 4.240,7.596 C4.105,7.596 3.994,7.485 3.994,7.349 C3.994,7.349 3.994,4.249 3.994,4.249 C3.994,4.112 4.105,4.001 4.240,4.001 C12.898,4.001 19.950,11.023 19.992,19.675 C19.992,19.675 20.006,19.753 20.006,19.753 C20.006,19.888 19.892,19.999 19.757,19.999 ZM4.240,9.226 C10.016,9.226 14.724,13.907 14.767,19.675 C14.767,19.675 14.779,19.752 14.779,19.752 C14.779,19.887 14.668,19.999 14.531,19.999 C14.531,19.999 14.521,19.999 14.521,19.999 C14.521,19.999 11.506,19.999 11.506,19.999 C11.368,19.999 11.259,19.887 11.259,19.752 C11.259,15.882 8.109,12.733 4.240,12.733 C4.105,12.733 3.994,12.623 3.994,12.487 C3.994,12.487 3.994,9.474 3.994,9.474 C3.994,9.337 4.105,9.226 4.240,9.226 ZM6.367,15.253 C7.676,15.253 8.741,16.317 8.741,17.628 C8.741,18.934 7.676,19.999 6.367,19.999 C5.058,19.999 3.994,18.933 3.994,17.628 C3.994,16.317 5.058,15.253 6.367,15.253 Z" id="path-1" class="cls-4" fill-rule="evenodd"/>
  </g>
</svg>
