<svg xmlns="http://www.w3.org/2000/svg" xmlns:xlink="http://www.w3.org/1999/xlink" preserveAspectRatio="xMidYMid" width="24" height="24" viewBox="0 0 24 24">
  <defs>
    <style>

      .cls-3 {
        fill: #f04e23;
      }

      .cls-4 {
        fill: #ffffff;
      }
    </style>
  </defs>
  <g id="stumbleupon">
    <rect id="rect-1" class="cls-3" width="24" height="24"/>
    <path d="M12.841,11.095 C12.841,11.095 13.932,11.573 13.932,11.573 C13.932,11.573 15.580,11.095 15.580,11.095 C15.580,11.095 15.580,10.232 15.580,10.232 C15.580,8.450 13.974,7.000 12.000,7.000 C10.026,7.000 8.420,8.450 8.420,10.232 C8.420,10.232 8.420,14.768 8.420,14.768 C8.420,15.187 8.043,15.527 7.580,15.527 C7.116,15.527 6.739,15.187 6.739,14.768 C6.739,14.768 6.739,12.869 6.739,12.869 C6.739,12.869 4.000,12.869 4.000,12.869 C4.000,12.869 4.000,14.768 4.000,14.768 C4.000,16.550 5.606,18.000 7.580,18.000 C9.553,18.000 11.159,16.550 11.159,14.768 C11.159,14.768 11.159,10.232 11.159,10.232 C11.159,9.813 11.536,9.473 12.000,9.473 C12.464,9.473 12.841,9.813 12.841,10.232 C12.841,10.232 12.841,11.095 12.841,11.095 ZM17.261,12.869 C17.261,12.869 17.261,14.768 17.261,14.768 C17.261,15.187 16.884,15.527 16.420,15.527 C15.957,15.527 15.580,15.187 15.580,14.768 C15.580,14.768 15.580,12.831 15.580,12.831 C15.580,12.831 13.932,13.308 13.932,13.308 C13.932,13.308 12.841,12.831 12.841,12.831 C12.841,12.831 12.841,14.768 12.841,14.768 C12.841,16.550 14.447,18.000 16.420,18.000 C18.394,18.000 20.000,16.550 20.000,14.768 C20.000,14.768 20.000,12.869 20.000,12.869 C20.000,12.869 17.261,12.869 17.261,12.869 Z" id="path-1" class="cls-4" fill-rule="evenodd"/>
  </g>
</svg>
