<svg xmlns="http://www.w3.org/2000/svg" xmlns:xlink="http://www.w3.org/1999/xlink" preserveAspectRatio="xMidYMid" width="24" height="24" viewBox="0 0 24 24">
  <defs>
    <style>

      .cls-3 {
        fill: #00acee;
      }

      .cls-4 {
        fill: #ffffff;
      }
    </style>
  </defs>
  <g id="twitter">
    <rect id="rect-1" class="cls-3" width="24" height="24"/>
    <path d="M19.559,6.240 C18.924,6.616 18.221,6.889 17.473,7.037 C16.874,6.398 16.022,6.000 15.078,6.000 C13.265,6.000 11.795,7.470 11.795,9.282 C11.795,9.539 11.824,9.790 11.880,10.030 C9.152,9.893 6.733,8.586 5.115,6.600 C4.832,7.084 4.671,7.648 4.671,8.250 C4.671,9.389 5.251,10.394 6.131,10.982 C5.593,10.964 5.087,10.816 4.644,10.570 C4.644,10.570 4.644,10.611 4.644,10.611 C4.644,12.201 5.776,13.527 7.276,13.830 C7.002,13.904 6.712,13.945 6.412,13.945 C6.200,13.945 5.995,13.924 5.794,13.886 C6.212,15.189 7.423,16.139 8.859,16.166 C7.736,17.046 6.320,17.570 4.783,17.570 C4.518,17.570 4.257,17.555 4.000,17.525 C5.453,18.456 7.177,19.000 9.032,19.000 C15.069,19.000 18.370,13.998 18.370,9.660 C18.370,9.660 18.360,9.235 18.360,9.235 C19.003,8.774 19.561,8.196 20.000,7.538 C19.411,7.799 18.780,7.976 18.116,8.055 C18.793,7.649 19.313,7.005 19.559,6.240 Z" id="path-1" class="cls-4" fill-rule="evenodd"/>
  </g>
</svg>
