<svg xmlns="http://www.w3.org/2000/svg" xmlns:xlink="http://www.w3.org/1999/xlink" preserveAspectRatio="xMidYMid" width="24" height="24" viewBox="0 0 24 24">
  <defs>
    <style>

      .cls-3 {
        fill: #ff6600;
      }

      .cls-4 {
        fill: #ffffff;
      }
    </style>
  </defs>
  <g id="blogger">
    <rect id="rect-1" class="cls-3" width="24" height="24"/>
    <path d="M18.966,10.000 C18.966,10.000 18.087,10.000 18.087,10.000 C18.087,10.000 18.069,10.000 18.069,10.000 C17.519,10.000 17.038,9.535 17.000,9.000 C17.000,9.000 17.000,9.000 17.000,9.000 C17.000,6.146 14.699,4.000 11.825,4.000 C11.825,4.000 9.203,4.000 9.203,4.000 C6.331,4.000 4.002,6.312 4.000,9.167 C4.000,9.167 4.000,14.835 4.000,14.835 C4.000,17.689 6.331,20.000 9.203,20.000 C9.203,20.000 14.803,20.000 14.803,20.000 C17.677,20.000 20.000,17.689 20.000,14.835 C20.000,14.835 20.000,11.173 20.000,11.173 C20.000,10.603 19.540,10.000 18.966,10.000 ZM9.000,8.000 C9.000,8.000 12.000,8.000 12.000,8.000 C12.550,8.000 13.000,8.450 13.000,9.000 C13.000,9.550 12.550,10.000 12.000,10.000 C12.000,10.000 9.000,10.000 9.000,10.000 C8.450,10.000 8.000,9.550 8.000,9.000 C8.000,8.450 8.450,8.000 9.000,8.000 ZM15.000,16.000 C15.000,16.000 9.000,16.000 9.000,16.000 C8.450,16.000 8.000,15.550 8.000,15.000 C8.000,14.450 8.450,14.000 9.000,14.000 C9.000,14.000 15.000,14.000 15.000,14.000 C15.550,14.000 16.000,14.450 16.000,15.000 C16.000,15.550 15.550,16.000 15.000,16.000 Z" id="path-1" class="cls-4" fill-rule="evenodd"/>
  </g>
</svg>
