<svg xmlns="http://www.w3.org/2000/svg" xmlns:xlink="http://www.w3.org/1999/xlink" preserveAspectRatio="xMidYMid" width="24" height="24" viewBox="0 0 24 24">
  <defs>
    <style>

      .cls-3 {
        fill: #3b5998;
      }

      .cls-4 {
        fill: #ffffff;
      }
    </style>
  </defs>
  <g id="facebook">
    <rect id="rect-1" class="cls-3" width="24" height="24"/>
    <path d="M15.993,9.715 C15.993,9.715 13.119,9.715 13.119,9.715 C13.119,9.715 13.119,8.289 13.119,8.289 C13.119,8.289 12.959,6.932 13.890,6.932 C14.942,6.932 15.783,6.932 15.783,6.932 C15.783,6.932 15.783,4.006 15.783,4.006 C15.783,4.006 12.560,4.006 12.560,4.006 C12.560,4.006 9.863,3.994 9.863,6.753 C9.863,7.346 9.861,8.425 9.857,9.715 C9.857,9.715 8.006,9.715 8.006,9.715 C8.006,9.715 8.006,12.071 8.006,12.071 C8.006,12.071 9.852,12.071 9.852,12.071 C9.842,15.816 9.828,19.990 9.828,19.990 C9.828,19.990 13.119,19.990 13.119,19.990 C13.119,19.990 13.119,12.071 13.119,12.071 C13.119,12.071 15.292,12.071 15.292,12.071 C15.292,12.071 15.993,9.715 15.993,9.715 Z" id="path-1" class="cls-4" fill-rule="evenodd"/>
  </g>
</svg>
