<svg xmlns="http://www.w3.org/2000/svg" xmlns:xlink="http://www.w3.org/1999/xlink" preserveAspectRatio="xMidYMid" width="24" height="24" viewBox="0 0 24 24">
  <defs>
    <style>

      .cls-3 {
        fill: #cb2027;
      }

      .cls-4 {
        fill: #ffffff;
      }
    </style>
  </defs>
  <g id="pinterest">
    <rect id="rect-1" class="cls-3" width="24" height="24"/>
    <path d="M16.297,5.702 C14.235,3.421 10.756,3.573 8.443,5.333 C6.471,6.833 5.078,10.164 6.735,12.431 C7.074,12.894 7.570,13.177 8.119,13.291 C8.266,13.322 8.384,13.249 8.435,13.109 C8.547,12.806 8.665,12.521 8.691,12.197 C8.701,12.073 8.603,12.003 8.501,11.998 C6.998,10.319 8.019,8.230 9.484,6.939 C10.779,5.797 13.157,4.726 14.678,6.042 C15.729,6.950 15.809,8.647 15.758,9.929 C15.695,11.537 15.143,13.231 13.501,13.743 C12.961,13.911 12.336,13.844 11.977,13.360 C11.572,12.814 11.702,12.155 11.855,11.552 C12.092,10.623 12.652,9.309 12.121,8.391 C11.479,7.279 10.184,8.290 9.811,9.039 C9.583,9.495 9.173,10.956 9.778,11.330 C9.135,12.984 8.701,14.802 8.408,16.546 C8.276,17.329 8.155,18.191 8.301,18.982 C8.308,19.024 8.475,19.618 8.641,19.850 C8.615,20.000 8.833,20.054 8.919,19.936 C9.511,19.130 10.118,18.359 10.444,17.397 C10.618,16.886 10.682,16.326 10.786,15.797 C10.859,15.427 11.008,15.006 11.046,14.611 C11.048,14.611 11.050,14.610 11.053,14.609 C11.564,15.009 12.252,15.347 12.859,15.467 C13.814,15.656 14.940,15.294 15.720,14.746 C15.839,14.662 15.958,14.561 16.073,14.448 C16.434,14.204 16.762,13.887 17.043,13.488 C18.659,11.190 18.111,7.709 16.297,5.702 ZM8.161,12.378 C8.173,12.392 8.187,12.403 8.201,12.413 C8.192,12.433 8.183,12.452 8.174,12.471 C8.154,12.445 8.134,12.420 8.114,12.395 C8.119,12.371 8.118,12.347 8.113,12.323 C8.129,12.341 8.144,12.359 8.161,12.378 ZM7.157,7.825 C7.006,8.092 6.878,8.367 6.772,8.650 C6.856,8.345 6.969,8.050 7.109,7.766 C7.129,7.774 7.152,7.780 7.175,7.783 C7.169,7.797 7.163,7.811 7.157,7.825 ZM16.346,6.686 C16.322,6.655 16.293,6.630 16.262,6.611 C16.255,6.600 16.246,6.593 16.238,6.584 C16.228,6.549 16.216,6.517 16.205,6.483 C16.296,6.603 16.384,6.726 16.466,6.853 C16.427,6.797 16.388,6.741 16.346,6.686 Z" id="path-1" class="cls-4" fill-rule="evenodd"/>
  </g>
</svg>
