<svg xmlns="http://www.w3.org/2000/svg" xmlns:xlink="http://www.w3.org/1999/xlink" preserveAspectRatio="xMidYMid" width="24" height="24" viewBox="0 0 24 24">
  <defs>
    <style>

      .cls-3 {
        fill: #fafafa;
      }

      .cls-4 {
        fill: #000000;
      }
    </style>
  </defs>
  <g id="reddit">
    <rect id="rect-1" class="cls-3" width="24" height="24"/>
    <path d="M20.007,10.876 C20.007,10.876 20.007,10.982 20.007,10.982 C20.007,11.365 19.897,11.714 19.676,12.029 C19.469,12.331 19.209,12.561 18.897,12.721 C18.909,12.791 18.919,12.865 18.926,12.946 C18.933,13.028 18.937,13.108 18.937,13.193 C18.937,14.025 18.670,14.775 18.137,15.447 C17.670,16.047 17.104,16.531 16.438,16.898 C15.771,17.265 15.075,17.540 14.348,17.720 C13.955,17.805 13.564,17.873 13.172,17.925 C12.783,17.978 12.392,18.005 11.999,18.005 C11.400,18.005 10.810,17.950 10.229,17.841 C9.651,17.732 9.087,17.571 8.541,17.354 C7.968,17.124 7.424,16.826 6.912,16.464 C6.397,16.101 5.971,15.646 5.632,15.100 C5.452,14.814 5.315,14.507 5.222,14.178 C5.128,13.850 5.081,13.522 5.081,13.193 C5.081,13.124 5.086,13.049 5.091,12.968 C5.100,12.888 5.107,12.813 5.122,12.743 C4.795,12.554 4.542,12.321 4.363,12.051 C4.129,11.722 4.004,11.378 3.993,11.023 C3.993,10.764 4.047,10.519 4.157,10.283 C4.268,10.049 4.411,9.838 4.591,9.649 C4.784,9.461 4.996,9.314 5.227,9.210 C5.456,9.104 5.708,9.052 5.980,9.052 C5.980,9.052 6.001,9.052 6.001,9.052 C6.001,9.052 6.161,9.052 6.161,9.052 C6.435,9.052 6.694,9.095 6.939,9.179 C7.174,9.262 7.386,9.378 7.580,9.525 C7.605,9.510 7.636,9.496 7.670,9.483 C7.702,9.469 7.739,9.454 7.779,9.440 C8.354,9.112 8.966,8.873 9.623,8.722 C10.280,8.573 10.934,8.472 11.588,8.424 C11.588,8.108 11.615,7.792 11.668,7.471 C11.721,7.150 11.831,6.844 11.998,6.559 C12.131,6.313 12.305,6.106 12.518,5.934 C12.731,5.764 12.973,5.643 13.247,5.573 C13.247,5.573 13.267,5.573 13.267,5.573 C13.474,5.531 13.676,5.511 13.877,5.511 C14.411,5.511 14.951,5.625 15.497,5.856 C15.717,5.515 16.022,5.262 16.418,5.102 C16.418,5.102 16.436,5.102 16.436,5.102 C16.682,5.030 16.917,4.995 17.137,4.995 C17.411,4.995 17.650,5.045 17.856,5.143 C17.856,5.143 17.877,5.143 17.877,5.143 C18.202,5.268 18.476,5.481 18.697,5.782 C18.916,6.096 19.024,6.436 19.018,6.798 C19.018,6.883 19.010,6.945 18.998,6.988 C18.970,7.232 18.904,7.450 18.797,7.643 C18.690,7.834 18.554,8.004 18.387,8.150 C18.019,8.465 17.604,8.622 17.137,8.622 C17.137,8.622 16.909,8.622 16.909,8.622 C16.441,8.581 16.049,8.389 15.728,8.047 C15.575,7.886 15.452,7.706 15.359,7.507 C15.266,7.307 15.219,7.085 15.219,6.841 C15.219,6.841 15.219,6.777 15.219,6.777 C14.999,6.693 14.779,6.618 14.557,6.552 C14.339,6.486 14.111,6.452 13.879,6.452 C13.879,6.452 13.699,6.452 13.699,6.452 C13.319,6.493 13.052,6.673 12.899,6.987 C12.779,7.203 12.701,7.437 12.664,7.689 C12.628,7.941 12.608,8.192 12.608,8.444 C13.264,8.486 13.904,8.587 14.534,8.748 C15.164,8.907 15.767,9.146 16.337,9.460 C16.337,9.460 16.358,9.482 16.358,9.482 C16.384,9.482 16.412,9.495 16.438,9.523 C16.545,9.438 16.635,9.380 16.707,9.345 C17.046,9.114 17.437,9.003 17.878,9.009 C18.044,9.009 18.221,9.030 18.407,9.072 C18.407,9.072 18.427,9.072 18.427,9.072 C18.833,9.185 19.190,9.404 19.497,9.732 C19.796,10.054 19.968,10.436 20.007,10.876 ZM6.700,10.121 C6.606,10.093 6.518,10.065 6.436,10.037 C6.353,10.009 6.260,9.996 6.161,9.996 C6.161,9.996 6.080,9.996 6.080,9.996 C6.080,9.996 6.061,9.996 6.061,9.996 C5.815,10.024 5.582,10.124 5.362,10.300 C5.167,10.487 5.063,10.708 5.041,10.960 C5.041,10.960 5.041,11.023 5.041,11.023 C5.041,11.197 5.088,11.340 5.182,11.453 C5.247,11.579 5.325,11.672 5.412,11.735 C5.564,11.421 5.749,11.130 5.965,10.864 C6.182,10.599 6.428,10.352 6.700,10.121 ZM17.917,13.214 C17.917,12.927 17.869,12.651 17.772,12.385 C17.674,12.120 17.547,11.869 17.388,11.631 C17.045,11.168 16.632,10.789 16.137,10.487 C15.643,10.187 15.124,9.958 14.578,9.796 C14.578,9.796 14.258,9.712 14.258,9.712 C14.258,9.712 13.948,9.628 13.948,9.628 C13.636,9.558 13.313,9.505 12.983,9.471 C12.654,9.436 12.332,9.417 12.020,9.417 C11.119,9.417 10.259,9.545 9.440,9.795 C8.893,9.957 8.377,10.190 7.885,10.498 C7.395,10.805 6.977,11.189 6.631,11.650 C6.277,12.112 6.101,12.640 6.101,13.234 C6.101,13.465 6.127,13.663 6.181,13.832 C6.303,14.272 6.522,14.679 6.842,15.057 C7.156,15.386 7.513,15.685 7.920,15.958 C7.920,15.958 8.070,16.032 8.070,16.032 C8.070,16.032 8.211,16.117 8.211,16.117 C8.784,16.431 9.395,16.661 10.045,16.803 C10.694,16.946 11.353,17.018 12.020,17.018 C12.020,17.018 12.359,17.018 12.359,17.018 C12.470,17.018 12.585,17.012 12.698,16.997 C13.365,16.940 14.018,16.812 14.657,16.609 C15.297,16.406 15.890,16.113 16.437,15.728 C16.804,15.456 17.103,15.155 17.336,14.827 C17.610,14.471 17.789,14.089 17.877,13.684 C17.903,13.614 17.917,13.541 17.917,13.465 C17.917,13.465 17.917,13.214 17.917,13.214 C17.917,13.214 17.917,13.214 17.917,13.214 ZM9.210,13.318 C9.304,13.359 9.406,13.380 9.520,13.380 C9.779,13.380 10.014,13.289 10.220,13.107 C10.440,12.919 10.550,12.688 10.550,12.417 C10.550,12.417 10.550,12.394 10.550,12.394 C10.550,12.394 10.550,12.353 10.550,12.353 C10.550,12.095 10.446,11.875 10.240,11.693 C10.021,11.505 9.779,11.410 9.520,11.410 C9.440,11.410 9.372,11.416 9.321,11.432 C9.141,11.459 8.982,11.534 8.846,11.657 C8.708,11.779 8.615,11.928 8.561,12.103 C8.533,12.144 8.520,12.190 8.520,12.238 C8.520,12.238 8.520,12.376 8.520,12.376 C8.520,12.606 8.580,12.808 8.701,12.983 C8.833,13.151 9.003,13.262 9.210,13.318 ZM14.808,14.587 C14.703,14.530 14.613,14.502 14.539,14.502 C14.459,14.502 14.374,14.523 14.289,14.566 C13.563,14.992 12.772,15.208 11.919,15.215 C11.280,15.215 10.687,15.086 10.140,14.827 C10.061,14.799 9.963,14.733 9.851,14.628 C9.824,14.614 9.794,14.602 9.762,14.587 C9.728,14.573 9.694,14.558 9.660,14.545 C9.581,14.517 9.521,14.502 9.480,14.502 C9.441,14.502 9.380,14.517 9.301,14.545 C9.301,14.545 9.279,14.545 9.279,14.545 C9.199,14.573 9.123,14.635 9.050,14.733 C9.010,14.803 8.990,14.891 8.990,14.995 C8.990,15.079 9.010,15.166 9.050,15.256 C9.090,15.327 9.150,15.383 9.231,15.424 C9.997,15.928 10.835,16.180 11.749,16.180 C11.796,16.180 11.847,16.180 11.898,16.180 C12.338,16.180 12.765,16.136 13.178,16.048 C13.591,15.962 13.992,15.823 14.379,15.635 C14.431,15.606 14.488,15.578 14.549,15.550 C14.609,15.523 14.672,15.488 14.738,15.446 C14.806,15.417 14.863,15.376 14.910,15.320 C14.975,15.251 15.015,15.176 15.029,15.099 C15.043,15.071 15.050,15.037 15.050,14.995 C15.050,14.953 15.036,14.890 15.008,14.806 C14.967,14.701 14.900,14.628 14.808,14.587 ZM15.436,12.080 C15.478,12.192 15.497,12.297 15.497,12.394 C15.497,12.611 15.436,12.808 15.317,12.983 C15.151,13.171 14.981,13.283 14.807,13.318 C14.807,13.318 14.778,13.318 14.778,13.318 C14.671,13.359 14.577,13.380 14.498,13.380 C14.249,13.380 14.031,13.304 13.838,13.151 C13.644,13.024 13.528,12.839 13.486,12.594 C13.486,12.594 13.486,12.573 13.486,12.573 C13.475,12.532 13.468,12.471 13.468,12.394 C13.468,12.178 13.532,11.993 13.658,11.840 C13.778,11.664 13.935,11.543 14.128,11.471 C14.248,11.431 14.365,11.409 14.478,11.409 C14.685,11.409 14.881,11.466 15.068,11.578 C15.262,11.711 15.385,11.878 15.436,12.080 ZM16.218,6.777 C16.218,6.777 16.218,6.818 16.218,6.818 C16.218,7.050 16.304,7.242 16.477,7.396 C16.659,7.556 16.858,7.636 17.077,7.636 C17.077,7.636 17.137,7.636 17.137,7.636 C17.358,7.636 17.554,7.556 17.727,7.396 C17.893,7.235 17.990,7.042 18.016,6.818 C18.016,6.818 18.016,6.777 18.016,6.777 C18.016,6.532 17.920,6.330 17.727,6.169 C17.560,5.994 17.358,5.911 17.116,5.918 C17.024,5.918 16.947,5.924 16.886,5.939 C16.693,5.980 16.537,6.079 16.418,6.231 C16.282,6.380 16.218,6.559 16.218,6.777 ZM18.977,10.982 C18.977,10.855 18.942,10.718 18.876,10.572 C18.782,10.397 18.639,10.254 18.446,10.141 C18.253,10.044 18.056,9.996 17.856,9.996 C17.663,9.996 17.484,10.037 17.318,10.122 C17.591,10.352 17.838,10.599 18.056,10.865 C18.276,11.131 18.460,11.427 18.607,11.757 C18.701,11.672 18.782,11.571 18.858,11.454 C18.937,11.312 18.977,11.155 18.977,10.982 Z" id="path-1" class="cls-4" fill-rule="evenodd"/>
  </g>
</svg>
