<svg xmlns="http://www.w3.org/2000/svg" xmlns:xlink="http://www.w3.org/1999/xlink" preserveAspectRatio="xMidYMid" width="24" height="24" viewBox="0 0 24 24">
  <defs>
    <style>

      .cls-3 {
        fill: #34465d;
      }

      .cls-4 {
        fill: #ffffff;
      }
    </style>
  </defs>
  <g id="tumblr">
    <rect id="rect-1" class="cls-3" width="24" height="24"/>
    <path d="M13.346,7.482 C13.346,7.482 13.346,4.008 13.346,4.008 C13.346,4.008 11.116,4.008 11.116,4.008 C11.066,4.136 11.039,4.289 11.039,4.445 C11.016,4.520 10.989,4.575 10.989,4.651 C10.760,5.938 10.094,6.838 8.968,7.329 C8.635,7.482 8.329,7.507 7.996,7.482 C7.996,7.482 7.996,10.286 7.996,10.286 C7.996,10.286 9.633,10.286 9.633,10.286 C9.660,14.227 9.660,16.259 9.660,16.362 C9.660,16.440 9.660,16.518 9.660,16.596 C9.865,18.318 10.760,19.349 12.347,19.735 C12.986,19.916 13.675,19.992 14.368,19.992 C15.262,19.967 16.133,19.812 17.004,19.529 C17.004,19.529 17.004,16.234 17.004,16.234 C16.493,16.388 16.029,16.517 15.622,16.644 C14.829,16.878 14.163,16.724 13.625,16.208 C13.574,16.131 13.497,16.028 13.470,15.925 C13.397,15.513 13.346,15.077 13.346,14.662 C13.346,14.662 13.346,10.287 13.346,10.287 C13.346,10.287 16.899,10.287 16.899,10.287 C16.899,10.287 16.899,7.482 16.899,7.482 C16.899,7.482 13.346,7.482 13.346,7.482 Z" id="path-1" class="cls-4" fill-rule="evenodd"/>
  </g>
</svg>
