<svg xmlns="http://www.w3.org/2000/svg" xmlns:xlink="http://www.w3.org/1999/xlink" preserveAspectRatio="xMidYMid" width="24" height="24" viewBox="0 0 24 24">
  <defs>
    <style>

      .cls-3 {
        fill: #155e8b;
      }

      .cls-4 {
        fill: #ffffff;
      }
    </style>
  </defs>
  <g id="vk">
    <rect id="rect-1" class="cls-3" width="24" height="24"/>
    <path d="M19.337,15.291 C18.861,14.722 18.300,14.238 17.769,13.723 C17.291,13.259 17.261,12.990 17.645,12.455 C18.065,11.870 18.517,11.308 18.940,10.726 C19.336,10.183 19.740,9.640 19.948,8.990 C20.080,8.575 19.963,8.392 19.536,8.320 C19.463,8.307 19.386,8.306 19.311,8.306 C19.311,8.306 16.776,8.304 16.776,8.304 C16.464,8.299 16.291,8.434 16.181,8.709 C16.031,9.081 15.878,9.453 15.700,9.811 C15.297,10.625 14.847,11.411 14.216,12.077 C14.077,12.224 13.923,12.409 13.691,12.333 C13.400,12.227 13.314,11.751 13.319,11.590 C13.319,11.590 13.316,8.682 13.316,8.682 C13.260,8.266 13.167,8.081 12.752,8.000 C12.752,8.000 10.118,8.001 10.118,8.001 C9.767,8.001 9.590,8.136 9.403,8.354 C9.294,8.481 9.262,8.562 9.484,8.604 C9.921,8.687 10.168,8.968 10.233,9.403 C10.338,10.099 10.331,10.798 10.270,11.497 C10.252,11.701 10.217,11.905 10.136,12.095 C10.008,12.395 9.803,12.456 9.533,12.271 C9.288,12.105 9.116,11.869 8.948,11.633 C8.316,10.746 7.812,9.789 7.401,8.784 C7.283,8.494 7.078,8.318 6.768,8.313 C6.007,8.301 5.247,8.299 4.486,8.314 C4.028,8.322 3.892,8.543 4.078,8.955 C4.907,10.787 5.829,12.568 7.033,14.190 C7.651,15.022 8.360,15.757 9.277,16.278 C10.316,16.868 11.434,17.046 12.612,16.991 C13.164,16.965 13.330,16.823 13.355,16.276 C13.373,15.903 13.415,15.531 13.601,15.195 C13.783,14.866 14.059,14.803 14.376,15.008 C14.535,15.111 14.669,15.241 14.796,15.379 C15.106,15.716 15.406,16.064 15.728,16.390 C16.132,16.799 16.611,17.041 17.213,16.991 C17.213,16.991 19.543,16.992 19.543,16.992 C19.919,16.967 20.114,16.510 19.898,16.093 C19.747,15.802 19.548,15.542 19.337,15.291 Z" id="path-1" class="cls-4" fill-rule="evenodd"/>
  </g>
</svg>
